<svg width="512" height="512" viewBox="0 0 512 512" fill="none" xmlns="http://www.w3.org/2000/svg">
  <!-- Background gradient circle -->
  <circle cx="256" cy="256" r="256" fill="url(#gradient1)"/>

  <!-- Gradient definition -->
  <defs>
    <linearGradient id="gradient1" x1="0" y1="0" x2="512" y2="512" gradientUnits="userSpaceOnUse">
      <stop offset="0%" stop-color="#3B82F6"/>
      <stop offset="100%" stop-color="#06B6D4"/>
    </linearGradient>
    <linearGradient id="gradient2" x1="0" y1="0" x2="512" y2="512" gradientUnits="userSpaceOnUse">
      <stop offset="0%" stop-color="#60A5FA"/>
      <stop offset="100%" stop-color="#22D3EE"/>
    </linearGradient>
  </defs>

  <!-- DNA/Network spiral design representing DNS -->
  <g opacity="0.3">
    <circle cx="256" cy="140" r="8" fill="white"/>
    <circle cx="256" cy="200" r="8" fill="white"/>
    <circle cx="256" cy="260" r="8" fill="white"/>
    <circle cx="256" cy="320" r="8" fill="white"/>
    <circle cx="256" cy="380" r="8" fill="white"/>

    <line x1="200" y1="170" x2="312" y2="230" stroke="white" stroke-width="2" opacity="0.5"/>
    <line x1="312" y1="290" x2="200" y2="350" stroke="white" stroke-width="2" opacity="0.5"/>
  </g>

  <!-- Central "N" letter for NexoralDNS -->
  <g transform="translate(256, 256)">
    <!-- Modern geometric N -->
    <path d="M-80 -100 L-80 100 L-50 100 L-50 -40 L50 100 L80 100 L80 -100 L50 -100 L50 40 L-50 -100 Z"
          fill="white"
          stroke="white"
          stroke-width="2"/>

    <!-- Small DNS indicator dots -->
    <circle cx="-90" cy="-90" r="6" fill="#22D3EE"/>
    <circle cx="90" cy="-90" r="6" fill="#22D3EE"/>
    <circle cx="90" cy="90" r="6" fill="#22D3EE"/>
  </g>

  <!-- Orbit rings representing network -->
  <circle cx="256" cy="256" r="200" stroke="white" stroke-width="2" fill="none" opacity="0.2"/>
  <circle cx="256" cy="256" r="220" stroke="white" stroke-width="1" fill="none" opacity="0.1"/>
</svg>
